<svg xmlns="http://www.w3.org/2000/svg" width="131.172" height="75.573" viewBox="0 0 131.172 75.573">
  <g id="DMC_Nordic_neg" data-name="DMC Nordic, neg" transform="translate(-0.49 -0.8)">
    <path id="Path_12" data-name="Path 12" d="M13.565,12.451q8.892,0,14.61,5.161A17.2,17.2,0,0,1,33.891,31a17.287,17.287,0,0,1-5.716,13.418q-5.716,5.188-14.61,5.188H.49V12.45ZM9.542,42.729h4.023a10.608,10.608,0,0,0,8.152-3.176,11.983,11.983,0,0,0,2.964-8.52,11.988,11.988,0,0,0-2.964-8.522,10.619,10.619,0,0,0-8.152-3.179H9.542Z" transform="translate(0 -11.122)" fill="#fff"/>
    <path id="Path_13" data-name="Path 13" d="M987.52,12.451V49.612h-9.05V28.649l-8.627,20.961H963.12l-8.628-20.961V49.611H945.44V12.45h10.374l10.7,25.62,10.637-25.619Z" transform="translate(-902.127 -11.122)" fill="#fff"/>
    <path id="Path_14" data-name="Path 14" d="M2088.652,33.433a18.186,18.186,0,0,1-5.532-13.63,18.188,18.188,0,0,1,5.532-13.631A18.681,18.681,0,0,1,2102.177.8a19.1,19.1,0,0,1,11.012,3.282,17.09,17.09,0,0,1,6.722,9.1h-10.8a7.114,7.114,0,0,0-6.777-4.075A9.461,9.461,0,0,0,2095,12.022a11.055,11.055,0,0,0-2.674,7.781A11.055,11.055,0,0,0,2095,27.584a9.456,9.456,0,0,0,7.331,2.912,7.112,7.112,0,0,0,6.777-4.079h10.8a17.084,17.084,0,0,1-6.723,9.105,19.1,19.1,0,0,1-11.012,3.281A18.665,18.665,0,0,1,2088.652,33.433Z" transform="translate(-1988.25)" fill="#fff"/>
    <path id="Path_15" data-name="Path 15" d="M4.2,1130.11l5.233,7.48h.032v-7.259H8.018v-.219h3.145v.219H9.717V1141.3H9.293l-7.07-10.073H2.19v9.853H3.636v.22H.49v-.22H1.936v-10.747H.49v-.219Z" transform="translate(0 -1078.132)" fill="#fff"/>
    <path id="Path_16" data-name="Path 16" d="M552.039,1128.027a6.2,6.2,0,0,1,3.292-3.04,5.583,5.583,0,0,1,2.059-.417,6.075,6.075,0,0,1,4.033,1.571,5.85,5.85,0,0,1,1.336,1.831,5.619,5.619,0,0,1,.51,2.428,5.373,5.373,0,0,1-.48,2.239,6.132,6.132,0,0,1-3.159,3.127,5.533,5.533,0,0,1-2.239.463,5.726,5.726,0,0,1-2.234-.446,6.1,6.1,0,0,1-1.878-1.226,6.023,6.023,0,0,1-1.3-1.83,5.621,5.621,0,0,1,.055-4.7Zm2.208,5.131a4.785,4.785,0,0,0,.589,1.713,2.145,2.145,0,0,0,1.037.888,4.124,4.124,0,0,0,1.516.252,3.3,3.3,0,0,0,1.823-.433,2.644,2.644,0,0,0,.99-1.195,5.743,5.743,0,0,0,.417-1.806q.087-1.045.086-2.271,0-1.1-.07-2.1a5.363,5.363,0,0,0-.4-1.761,2.731,2.731,0,0,0-1-1.21,3.978,3.978,0,0,0-3.606-.031,2.652,2.652,0,0,0-1.006,1.171,5.706,5.706,0,0,0-.456,1.791,21.855,21.855,0,0,0-.11,2.279A15.988,15.988,0,0,0,554.246,1133.158Z" transform="translate(-526.035 -1072.843)" fill="#fff"/>
    <path id="Path_17" data-name="Path 17" d="M1129.21,1129.377v-.22h2.373q.66,0,1.3-.024t1.3-.023a7.146,7.146,0,0,1,1.3.126,4.206,4.206,0,0,1,1.249.432,2.717,2.717,0,0,1,.935.825,2.2,2.2,0,0,1,.37,1.3,1.97,1.97,0,0,1-.284,1.076,2.325,2.325,0,0,1-.73.731,3.658,3.658,0,0,1-1,.432,6.244,6.244,0,0,1-1.084.2v.079q.77.141,1.375.282a3.313,3.313,0,0,1,1.045.425,2,2,0,0,1,.7.786,3.557,3.557,0,0,1,.323,1.352q.078.99.126,1.587a5.607,5.607,0,0,0,.133.927.777.777,0,0,0,.236.44.721.721,0,0,0,.432.11.752.752,0,0,0,.519-.181c.136-.12.257-.233.363-.338l.157.142c-.105.1-.207.2-.307.291a1.472,1.472,0,0,1-.345.226,2.008,2.008,0,0,1-.479.15,3.849,3.849,0,0,1-.707.054,2.761,2.761,0,0,1-1.352-.275,1.86,1.86,0,0,1-.725-.683,2.281,2.281,0,0,1-.291-.888q-.055-.478-.071-.9-.031-.644-.087-1.249a3.488,3.488,0,0,0-.258-1.076,1.738,1.738,0,0,0-.613-.755,1.989,1.989,0,0,0-1.147-.283h-1.037v5.673h1.446v.221h-5.17v-.22h1.446v-10.747Zm4.369,4.856a2.707,2.707,0,0,0,1.115-.189,1.4,1.4,0,0,0,.613-.51,1.8,1.8,0,0,0,.26-.731,7.067,7.067,0,0,0-.04-2.019,2.142,2.142,0,0,0-.314-.816,1.315,1.315,0,0,0-.6-.479,2.645,2.645,0,0,0-.982-.157c-.116,0-.231.006-.346.016l-.346.031v4.856Z" transform="translate(-1077.569 -1077.178)" fill="#fff"/>
    <path id="Path_18" data-name="Path 18" d="M1669.81,1129.377v-.22h1.446q.8,0,1.6-.024t1.6-.023a12.611,12.611,0,0,1,1.493.094,8.521,8.521,0,0,1,1.555.338,7.053,7.053,0,0,1,1.464.651,4.753,4.753,0,0,1,2.075,2.53,6.655,6.655,0,0,1,0,4.039,4.954,4.954,0,0,1-.842,1.493,4.84,4.84,0,0,1-1.2,1.037,6.953,6.953,0,0,1-1.407.652,7.763,7.763,0,0,1-1.446.338,10.065,10.065,0,0,1-1.328.094c-.6,0-1.192,0-1.783-.015s-1.187-.016-1.783-.016h-1.446v-.22h1.446v-10.748Zm4.557,10.8a5.5,5.5,0,0,0,1.744-.243,3.679,3.679,0,0,0,1.218-.66,3.3,3.3,0,0,0,.786-.951,4.77,4.77,0,0,0,.44-1.124,6.95,6.95,0,0,0,.2-1.178q.047-.589.045-1.108a15.5,15.5,0,0,0-.156-2.3,4.557,4.557,0,0,0-.621-1.759,3,3,0,0,0-1.3-1.124,5.282,5.282,0,0,0-2.208-.393c-.21,0-.4,0-.565.009a2.655,2.655,0,0,0-.408.038v10.75q.416.043.834.045Z" transform="translate(-1593.67 -1077.178)" fill="#fff"/>
    <path id="Path_19" data-name="Path 19" d="M2251.271,1130.11v.221h-1.446v10.75h1.446v.218H2246.1v-.22h1.445v-10.747H2246.1v-.219Z" transform="translate(-2143.844 -1078.132)" fill="#fff"/>
    <path id="Path_20" data-name="Path 20" d="M2692.025,1128.015q-.174-.519-.417-1.092a4.473,4.473,0,0,0-.628-1.053,3.073,3.073,0,0,0-.959-.786,2.989,2.989,0,0,0-1.421-.306,3.318,3.318,0,0,0-1.807.424,2.646,2.646,0,0,0-1,1.178,5.614,5.614,0,0,0-.434,1.8q-.093,1.046-.093,2.286a16.014,16.014,0,0,0,.188,2.7,4.67,4.67,0,0,0,.589,1.7,2.151,2.151,0,0,0,1.038.88,4.148,4.148,0,0,0,1.517.251,2.861,2.861,0,0,0,1.281-.282,3.574,3.574,0,0,0,1.014-.746,4.385,4.385,0,0,0,.739-1.061,5.336,5.336,0,0,0,.439-1.242h.252V1136h-.252a.546.546,0,0,0-.188-.259.619.619,0,0,0-.33-.071,1.854,1.854,0,0,0-.487.086c-.2.058-.427.121-.684.188s-.537.131-.841.188a5.153,5.153,0,0,1-.959.086,5.678,5.678,0,0,1-2.215-.448,6.066,6.066,0,0,1-1.878-1.226,5.978,5.978,0,0,1-1.3-1.831,5.612,5.612,0,0,1,.056-4.7,6.229,6.229,0,0,1,3.285-3.041,5.506,5.506,0,0,1,2.05-.416,4.4,4.4,0,0,1,.935.094q.432.094.8.2c.245.068.467.136.668.2a1.706,1.706,0,0,0,.5.095.768.768,0,0,0,.33-.055.376.376,0,0,0,.157-.275h.252v3.206Z" transform="translate(-2560.664 -1072.832)" fill="#fff"/>
    <rect id="Rectangle_5" data-name="Rectangle 5" width="28.016" height="1.037" transform="translate(50.346 75.336)" fill="#fff"/>
  </g>
</svg>
